<?xml version="1.0" encoding="utf-8"?><svg xmlns="http://www.w3.org/2000/svg" xmlns:xlink="http://www.w3.org/1999/xlink"><symbol viewBox="0 0 24 24" fill="none" id="socialSvgs--TgIcon" xmlns="http://www.w3.org/2000/svg"><path d="M12 24c6.628 0 12-5.372 12-12S18.628 0 12 0 0 5.372 0 12s5.372 12 12 12zM5.49 11.742L17.061 7.28c.54-.192 1.008.13.83.942l-1.969 9.281c-.145.656-.539.82-1.082.506l-3-2.212-1.449 1.392c-.16.16-.295.295-.604.295l.21-3.051 5.565-5.02c.243-.211-.057-.333-.376-.122l-6.871 4.326-2.963-.923c-.642-.207-.656-.642.136-.952z" fill="#000"/></symbol><symbol viewBox="0 0 24 24" fill="currentColor" id="socialSvgs--VkIcon" xmlns="http://www.w3.org/2000/svg"><path d="M12 0C5.374 0 0 5.374 0 12s5.374 12 12 12 12-5.374 12-12S18.626 0 12 0zm6.086 13.3c.564.54 1.153 1.056 1.644 1.67.22.27.442.54.589.858.22.442.025.933-.368.957h-2.454c-.638.05-1.129-.196-1.57-.638a20.431 20.431 0 01-.982-1.08 1.694 1.694 0 00-.442-.392c-.344-.221-.638-.147-.81.196-.196.368-.245.76-.27 1.153-.024.59-.196.737-.785.761-1.252.05-2.43-.122-3.51-.76-.956-.565-1.717-1.326-2.355-2.209-1.276-1.718-2.233-3.607-3.117-5.546-.196-.442-.049-.663.442-.687a39.29 39.29 0 012.405 0c.32 0 .54.196.663.49.441 1.056.957 2.086 1.62 3.019.171.245.367.49.613.687.294.197.49.123.638-.196.073-.197.122-.417.147-.638a8.322 8.322 0 00-.049-2.209c-.074-.49-.319-.785-.785-.883-.246-.05-.197-.123-.098-.27.196-.221.392-.368.76-.368h2.773c.442.098.54.27.59.711v3.092c0 .172.073.688.392.786.245.073.417-.123.564-.27.663-.712 1.13-1.546 1.57-2.405.197-.393.344-.785.516-1.178.123-.295.295-.442.638-.442h2.675a.92.92 0 01.245.025c.442.073.565.27.442.711-.22.688-.638 1.276-1.055 1.84-.442.614-.933 1.203-1.374 1.841-.442.59-.417.884.098 1.375z" fill="#000"/></symbol><symbol viewBox="0 0 48 48" id="socialSvgs--WhatsappIcon" xmlns="http://www.w3.org/2000/svg"><path d="M23.993 0C10.763 0 0 10.765 0 24a23.824 23.824 0 004.57 14.067l-2.99 8.917 9.224-2.948A23.81 23.81 0 0024.007 48C37.237 48 48 37.234 48 24S37.238 0 24.007 0h-.014zm-6.7 12.19c-.466-1.114-.818-1.156-1.523-1.185a13.55 13.55 0 00-.804-.027c-.918 0-1.877.268-2.455.86-.705.72-2.454 2.398-2.454 5.841s2.51 6.773 2.849 7.239c.353.465 4.895 7.632 11.947 10.553 5.515 2.286 7.152 2.074 8.407 1.806 1.834-.395 4.133-1.75 4.711-3.386.579-1.637.579-3.034.41-3.33-.17-.296-.636-.465-1.34-.818-.706-.353-4.134-2.046-4.783-2.272-.634-.24-1.24-.155-1.72.522-.677.946-1.34 1.905-1.876 2.483-.423.452-1.115.509-1.693.268-.776-.324-2.948-1.086-5.628-3.47-2.074-1.849-3.484-4.148-3.893-4.84-.41-.705-.042-1.114.282-1.495.353-.438.691-.748 1.044-1.157.352-.41.55-.621.776-1.1.24-.466.07-.946-.1-1.3-.168-.352-1.579-3.795-2.157-5.191z" fill-rule="evenodd"/></symbol><symbol fill="#fff" viewBox="0 0 32 32" id="socialSvgs--instagram" xmlns="http://www.w3.org/2000/svg"><path d="M20.445 5h-8.891A6.559 6.559 0 005 11.554v8.891A6.559 6.559 0 0011.554 27h8.891a6.56 6.56 0 006.554-6.555v-8.891A6.557 6.557 0 0020.445 5zm4.342 15.445a4.343 4.343 0 01-4.342 4.342h-8.891a4.341 4.341 0 01-4.341-4.342v-8.891a4.34 4.34 0 014.341-4.341h8.891a4.342 4.342 0 014.341 4.341l.001 8.891z"/><path d="M16 10.312c-3.138 0-5.688 2.551-5.688 5.688s2.551 5.688 5.688 5.688 5.688-2.551 5.688-5.688-2.55-5.688-5.688-5.688zm0 9.163a3.475 3.475 0 11-.001-6.95 3.475 3.475 0 01.001 6.95zm5.7-10.484a1.363 1.363 0 11-1.364 1.364c0-.752.51-1.364 1.364-1.364z"/></symbol><symbol class="ehidden" viewBox="0 0 0 0" id="spriteVkTgWsp"/><symbol viewBox="0 0 0 0" id="sprites--sprite"/></svg>