<svg width="0" height="0" class="hidden">
  <symbol fill="none" xmlns="http://www.w3.org/2000/svg" viewBox="0 0 24 24" id="tg">
    <path
      d="M12 24C18.6281 24 24 18.6281 24 12C24 5.37188 18.6281 0 12 0C5.37188 0 0 5.37188 0 12C0 18.6281 5.37188 24 12 24ZM5.48906 11.7422L17.0625 7.27969C17.6016 7.0875 18.0703 7.41094 17.8922 8.22187L15.9234 17.5031C15.7781 18.1594 15.3844 18.3234 14.8406 18.0094L11.8406 15.7969L10.3922 17.1891C10.2328 17.3484 10.0969 17.4844 9.7875 17.4844L9.99844 14.4328L15.5625 9.4125C15.8062 9.20156 15.5063 9.07969 15.1875 9.29062L8.31562 13.6172L5.35312 12.6937C4.71094 12.4875 4.69688 12.0516 5.48906 11.7422Z"
      fill="#fff"></path>
  </symbol>
  <symbol fill="currentColor" xmlns="http://www.w3.org/2000/svg" viewBox="0 0 24 24" id="vk">
    <path
      d="M12 0C5.37423 0 0 5.37423 0 12C0 18.6258 5.37423 24 12 24C18.6258 24 24 18.6258 24 12C24 5.37423 18.6258 0 12 0ZM18.0859 13.3006C18.6503 13.8405 19.2393 14.3558 19.7301 14.9693C19.9509 15.2393 20.1718 15.5092 20.319 15.8282C20.5399 16.2699 20.3436 16.7607 19.9509 16.7853H17.4969C16.8589 16.8344 16.3681 16.589 15.9264 16.1472C15.5828 15.8037 15.2638 15.4356 14.9448 15.0675C14.8221 14.9202 14.6748 14.773 14.5031 14.6748C14.1595 14.454 13.865 14.5276 13.6933 14.8712C13.4969 15.2393 13.4479 15.6319 13.4233 16.0245C13.3988 16.6135 13.227 16.7607 12.638 16.7853C11.3865 16.8344 10.2086 16.6626 9.12883 16.0245C8.17178 15.4601 7.41104 14.6994 6.77301 13.816C5.49693 12.0982 4.53988 10.2086 3.65644 8.26994C3.46012 7.82822 3.60736 7.60736 4.09816 7.58282C4.90798 7.55828 5.69325 7.55828 6.50307 7.58282C6.82209 7.58282 7.04294 7.77914 7.16564 8.07362C7.60736 9.12883 8.1227 10.1595 8.78528 11.092C8.95705 11.3374 9.15337 11.5828 9.39877 11.7791C9.69325 11.9755 9.88957 11.9018 10.0368 11.5828C10.1104 11.3865 10.1595 11.1656 10.184 10.9448C10.2577 10.2086 10.2577 9.47239 10.135 8.7362C10.0613 8.2454 9.81595 7.95092 9.34969 7.85276C9.10429 7.80368 9.15337 7.73006 9.25153 7.58282C9.44785 7.36196 9.64417 7.21472 10.0123 7.21472H12.7853C13.227 7.31288 13.3252 7.48466 13.3742 7.92638V11.0184C13.3742 11.1902 13.4479 11.7055 13.7669 11.8037C14.0123 11.8773 14.184 11.681 14.3313 11.5337C14.9939 10.8221 15.4601 9.98773 15.9018 9.12883C16.0982 8.7362 16.2454 8.34356 16.4172 7.95092C16.5399 7.65644 16.7117 7.5092 17.0552 7.5092H19.7301C19.8037 7.5092 19.8773 7.5092 19.9755 7.53374C20.4172 7.60736 20.5399 7.80368 20.4172 8.2454C20.1963 8.93251 19.7791 9.52147 19.362 10.0859C18.9202 10.6994 18.4294 11.2883 17.9877 11.9264C17.546 12.5153 17.5706 12.8098 18.0859 13.3006Z"
      fill="#fff"></path>
  </symbol>
  <symbol version="1.1" xmlns="http://www.w3.org/2000/svg" xmlns:xlink="http://www.w3.org/1999/xlink" id="whatsapp"
    viewBox="0 0 48 48">
    <title>Whatsapp-black</title>
    <desc>Created with Sketch.</desc>
    <defs></defs>
    <g id="Icons" stroke="none" stroke-width="1" fill="none" fill-rule="evenodd">
      <g id="Black" transform="translate(-700.000000, -360.000000)" fill="#fff">
        <path
          d="M723.993033,360 C710.762252,360 700,370.765287 700,383.999801 C700,389.248451 701.692661,394.116025 704.570026,398.066947 L701.579605,406.983798 L710.804449,404.035539 C714.598605,406.546975 719.126434,408 724.006967,408 C737.237748,408 748,397.234315 748,384.000199 C748,370.765685 737.237748,360.000398 724.006967,360.000398 L723.993033,360.000398 L723.993033,360 Z M717.29285,372.190836 C716.827488,371.07628 716.474784,371.034071 715.769774,371.005401 C715.529728,370.991464 715.262214,370.977527 714.96564,370.977527 C714.04845,370.977527 713.089462,371.245514 712.511043,371.838033 C711.806033,372.557577 710.056843,374.23638 710.056843,377.679202 C710.056843,381.122023 712.567571,384.451756 712.905944,384.917648 C713.258648,385.382743 717.800808,392.55031 724.853297,395.471492 C730.368379,397.757149 732.00491,397.545307 733.260074,397.27732 C735.093658,396.882308 737.393002,395.527239 737.971421,393.891043 C738.54984,392.25405 738.54984,390.857171 738.380255,390.560912 C738.211068,390.264652 737.745308,390.095816 737.040298,389.742615 C736.335288,389.389811 732.90737,387.696673 732.25849,387.470894 C731.623543,387.231179 731.017259,387.315995 730.537963,387.99333 C729.860819,388.938653 729.198006,389.89831 728.661785,390.476494 C728.238619,390.928051 727.547144,390.984595 726.969123,390.744481 C726.193254,390.420348 724.021298,389.657798 721.340985,387.273388 C719.267356,385.42535 717.856938,383.125756 717.448104,382.434484 C717.038871,381.729275 717.405907,381.319529 717.729948,380.938852 C718.082653,380.501232 718.421026,380.191036 718.77373,379.781688 C719.126434,379.372738 719.323884,379.160897 719.549599,378.681068 C719.789645,378.215575 719.62006,377.735746 719.450874,377.382942 C719.281687,377.030139 717.871269,373.587317 717.29285,372.190836 Z"
          id="Whatsapp"></path>
      </g>
    </g>
  </symbol>
</svg>